<svg xmlns="http://www.w3.org/2000/svg" width="512" height="512" viewBox="0 0 512 512">
  <rect width="512" height="512" rx="96" fill="#102216"/>
  <g transform="translate(256,256)">
    <!-- Leaf shape -->
    <path d="M0,-160 C80,-160 160,-80 160,0 C160,80 80,160 0,160 C-40,120 -60,60 -60,0 C-60,-60 -40,-120 0,-160Z" fill="#13ec5b" opacity="0.9"/>
    <!-- Leaf vein -->
    <line x1="0" y1="-140" x2="0" y2="140" stroke="#102216" stroke-width="4" opacity="0.3"/>
    <line x1="0" y1="-80" x2="60" y2="-20" stroke="#102216" stroke-width="3" opacity="0.2"/>
    <line x1="0" y1="-40" x2="50" y2="20" stroke="#102216" stroke-width="3" opacity="0.2"/>
    <line x1="0" y1="0" x2="40" y2="60" stroke="#102216" stroke-width="3" opacity="0.2"/>
    <line x1="0" y1="40" x2="30" y2="80" stroke="#102216" stroke-width="3" opacity="0.2"/>
    <!-- AI dots -->
    <circle cx="-30" cy="-60" r="6" fill="white" opacity="0.6"/>
    <circle cx="40" cy="-10" r="6" fill="white" opacity="0.6"/>
    <circle cx="20" cy="60" r="6" fill="white" opacity="0.6"/>
    <circle cx="-20" cy="20" r="6" fill="white" opacity="0.6"/>
    <!-- AI connections -->
    <line x1="-30" y1="-60" x2="40" y2="-10" stroke="white" stroke-width="1.5" opacity="0.3"/>
    <line x1="40" y1="-10" x2="20" y2="60" stroke="white" stroke-width="1.5" opacity="0.3"/>
    <line x1="-20" y1="20" x2="40" y2="-10" stroke="white" stroke-width="1.5" opacity="0.3"/>
  </g>
</svg>
