<svg xmlns="http://www.w3.org/2000/svg" width="192" height="192" viewBox="0 0 192 192">
  <rect width="192" height="192" rx="36" fill="#102216"/>
  <g transform="translate(96,96)">
    <path d="M0,-60 C30,-60 60,-30 60,0 C60,30 30,60 0,60 C-15,45 -22,22 -22,0 C-22,-22 -15,-45 0,-60Z" fill="#13ec5b" opacity="0.9"/>
    <line x1="0" y1="-52" x2="0" y2="52" stroke="#102216" stroke-width="2" opacity="0.3"/>
    <line x1="0" y1="-30" x2="22" y2="-8" stroke="#102216" stroke-width="1.5" opacity="0.2"/>
    <line x1="0" y1="-10" x2="18" y2="8" stroke="#102216" stroke-width="1.5" opacity="0.2"/>
    <circle cx="-10" cy="-22" r="3" fill="white" opacity="0.6"/>
    <circle cx="15" cy="-4" r="3" fill="white" opacity="0.6"/>
    <circle cx="8" cy="22" r="3" fill="white" opacity="0.6"/>
    <line x1="-10" y1="-22" x2="15" y2="-4" stroke="white" stroke-width="1" opacity="0.3"/>
    <line x1="15" y1="-4" x2="8" y2="22" stroke="white" stroke-width="1" opacity="0.3"/>
  </g>
</svg>
